# xmcd
#
# Track frame offsets: 
#        150
#        11109
#        23429
#        37977
#        51132
#        64882
#        78974
#        92062
#        107332
#        122838
#        136276
#        148165
#        159706
#        172981
#        187780
#        201423
#        215559
#        231756
#        246521
#        260929
#        275042
#        289493
#        301881
#        314787
#
# Disc length: 4385 seconds
#
# Revision: 1
# Processed by: cddbd v1.5.2PL0 Copyright (c) Steve Scherf et al.
# Submitted via: ExactAudioCopy v1.1
#
DISCID=6a111f18
DTITLE=Various Artist - Poor Man's Heaven - When The Sun Goes Down Vo
DTITLE=l 6
DYEAR=2003
DGENRE=Blues
TTITLE0=Eddie Cantor - Eddie Cantor's Tips On The Stock Market (mono)
TTITLE1=Frank Crumit - A Tale Of The Ticker (mono)
TTITLE2=Leo Reisman - Brother, Can You Spare A Dime (mono)
TTITLE3=George Hall - Remember My Forgotten Man (mono)
TTITLE4=Alex Bartha - It Must Be Swell (mono)
TTITLE5=Ramona and Roy Bargy - Raising The Rent (mono)
TTITLE6=Julia Gerity - Sittin' On A Rubbish Can (mono)
TTITLE7=The High Hatters - Ten Cents A Dance (mono)
TTITLE8=Bill Billings and Carson Robinson - Poor Man's Heaven (mono)
TTITLE9=Bob Miller - The Rich Man And The Poor Man (mono)
TTITLE10=Harry 'Mac' McClintock - Hallelujah, I'm A Bum (mono)
TTITLE11=Uncle Dave Macon - All In Down And Out Blues (mono)
TTITLE12=Fiddlin' John Carson - Taxes On The Farmer Feeds Them All (mo
TTITLE12=no)
TTITLE13=Blind Alfred Reed - How Can A Poor Man Stand Such Times And L
TTITLE13=ive (mono)
TTITLE14=Vernon Dalhart - The Farm Relief Song (mono)
TTITLE15=Woody Guthrie - Dusty Old Dust (So Long, It's Been Good To Kn
TTITLE15=ow Yuh) (mono)
TTITLE16=Daddy Stovepipe and Mississippi Sarah - 35 Depression (mono)
TTITLE17=Lane Hardin - California Desert Blues (mono)
TTITLE18=Joe Stone - It's Hard Time (mono)
TTITLE19=Rev. J.M. Gates - President Roosevelt Is Everybody's Friend (
TTITLE19=mono)
TTITLE20=Joe Pullum - CWA Blues (mono)
TTITLE21=The Cedar Creek Sheik - Jimmy Shut His Store Doors (mono)
TTITLE22=Sonny Boy Williamson - Welfare Store Blues (mono)
TTITLE23=Wilmouth Houdini - Poor But Ambitious (mono)
EXTD=Bluebird 82876-50958-2\nSeries subtitled "The Secret History of R
EXTD=ock and Roll"
EXTT0=
EXTT1=
EXTT2=
EXTT3=
EXTT4=
EXTT5=
EXTT6=
EXTT7=
EXTT8=
EXTT9=
EXTT10=
EXTT11=
EXTT12=
EXTT13=
EXTT14=
EXTT15=
EXTT16=
EXTT17=
EXTT18=
EXTT19=
EXTT20=
EXTT21=
EXTT22=
EXTT23=
PLAYORDER=
